<svg id="Layer_1" data-name="Layer 1" xmlns="http://www.w3.org/2000/svg" viewBox="0 0 1024 1024">
<defs>
    <style>.cls-1{fill:#f37003;}.cls-2{fill:#fff;}</style>
</defs>
<title>Main Logo_BG</title>
<circle class="cls-1" cx="512" cy="512" r="512"/>
<path class="cls-2" d="M571.866,514.738c-5.488-6.949-11.661-10.5-33.9-28.061-25.773-20.35-22.728-18.36-22.089-20.988a54.866,54.866,0,0,0,1.212-8.9c2.906-18.442-5.543-20.1-7.57-25.541-.324-.87-1.074-.522-1.638-2.67a1.516,1.516,0,0,0-1.657.805,45.03,45.03,0,0,0-2.776,4.063c-11.142,19.553-8.9,14.221-8.625,28.542.139,7.3,1.953,7.289-.351,9.3-13.78,12-43.06,29.4-55.507,40.733-2.721,2.479-1.333,1.716-8.384,8.11a3.788,3.788,0,0,0-1.342,1.915,14.546,14.546,0,0,0-.6,3.939,141.5,141.5,0,0,0,3.211,20c9.588,43.345,7.663,39.19,18.314,65.784.028.083,8.181,19.04,9.06,22.813,3.138,13.359,5.433,22.514,6.8,29.031h67.843c1.564-7.09,4.025-14.287,7.07-23.882,2.7-8.541-.13-2.761,16.806-38.485,6.459-13.608,8.393-21.784,18.341-57.856C582.665,519.556,578.769,523.487,571.866,514.738Zm-65.724-57.491c.546.7.009,1.144-.453,1.717C505.439,458.25,505.43,457.7,506.142,457.247ZM558.1,532.841c-2.813,7.073-3.711,17.986-13.418,37.714-2.286,4.644-5.664,11.991-7.348,14.81-3.693,6.186-3.72,10.026-5.988,13.019-1.6,2.131-2.1.639-5.312,1.725a3.972,3.972,0,0,1-3.627-.24c-.833-.531-1.786-.224-2.6-.241-2.48-1.915-2.582-13.359-3.137-17.638,2.305-1.634,3.943-2.637,5.072-5.407,4.368-10.7,3.155-12.629,4.682-13.981,2.092-1.832,2.082-3.217,2.823-10.282.222-2.082.148-3.923-1.425-4.951,4.414-5.465,3.562-14.1-.741-19.835-5.071-6.759-9.865-8.027-13.224-13.724.278-.514.583-1.02.824-1.551.777-1.716-.778-1.915-.408-2.877.87-2.223-1.573-2.894-2.11-5.374-1.471-6.725-7.912-1.932-11.9-2.786-3.619-.771-6.182,2.073-9.125,5.531-1.472,1.733-.491,2.6.472,3.79-.287.646-1.083,1.136-.87,1.882.4,1.352,1.656,2.1-.722,3.259-11.882,5.788-10.827,16.6-14.862,21.212-3.119,3.557-2.267,8.665.37,12.845-2.813,1.244-3.072,1.824-1.249,7.4,1.6,4.909-.1,6.651,4.22,8.956,1.036,4.818,1.656,10.946,9.087,14.777,3.11,1.6.805,14.959.62,16.46-.175,1.394-2.674,3.019-4.1,3.176-4.091.448-3.5,1-4.322-.315-9.791-15.664-9.365-14.553-13.669-24.33-19.063-43.27-16.019-42.507-15.547-42.93,11.161-9.851,12.41-10.921,18.8-16.369,28.512-24.313,34.694-40.782,38.007-36.835,12.586,14.935,25.615,32.448,45.882,48.287C558.734,532.3,558.577,531.605,558.1,532.841Z"/>
<path class="cls-2" d="M428.68,878.25h-.12v2.11l4.35,8.35h.36v-2Z"/>
<path class="cls-2" d="M432.91,888.71H421.15v71.74h-2.11l-10.35-5.88V888.71H384.93v71.74h-2.11l-10.24-5.88V929.76h-.11a15.286,15.286,0,0,1-6.12,1.17,18.364,18.364,0,0,1-7.05-1.35,28.753,28.753,0,0,1-7.06-4.41l-.47.12a21.3,21.3,0,0,1,2.23,9.88q0,8.7-5.35,13.93t-14.05,5.23a29.238,29.238,0,0,1-21.23-8.7,96.676,96.676,0,0,1-15.93-20.93l4-2.94a65.013,65.013,0,0,0,13.29,15.11q7.395,6.06,14.81,6.06a13.864,13.864,0,0,0,9.88-3.65,11.519,11.519,0,0,0,3.88-8.7,16.028,16.028,0,0,0-4.58-11.64,98.706,98.706,0,0,1-16.23,3.41l-4.94-8.94,1.29-2.94q12.12-.825,16.94-3.53a11.084,11.084,0,0,0,5.88-10.23,8.524,8.524,0,0,0-3.12-6.47,10.914,10.914,0,0,0-7.59-2.82,19.566,19.566,0,0,0-9.11,2.23,42.045,42.045,0,0,0-8.88,6.47l-6-11.52a44.475,44.475,0,0,1,10-5.41,27.627,27.627,0,0,1,9.88-2.35q4.815,0,10.41,3.94a35.507,35.507,0,0,1,9.34,9.7,20.453,20.453,0,0,1,3.77,11.17,19.55,19.55,0,0,1-6,14.11,44.2,44.2,0,0,0,8.11,3.18,29.9,29.9,0,0,0,8.24,1.29,20.02,20.02,0,0,0,11.87-3.65V888.71H356.24l-4.47-8.35v-2.11h76.79v2.11Z"/>
<path class="cls-2" d="M488.72,846.79q-14.64-9.465-27.11-9.47a33.99,33.99,0,0,0-13.17,2.41,20.973,20.973,0,0,0-8.94,6.65,15.616,15.616,0,0,0-3.18,9.64q0,9.4,10.12,22.23H428.56v2.11l4.35,8.35h12.35v65.86l10.35,5.88h2.12V888.71h11.99v-2l-4.58-8.46H454.08a35.239,35.239,0,0,1-3.17-7.41,28.164,28.164,0,0,1-1.41-8.47q0-6.705,4.82-10.35t12.35-3.76v.12q10.23,0,22.75,7.29a208.494,208.494,0,0,1,26.99,19.17l3.29-4.36A276.313,276.313,0,0,0,488.72,846.79Z"/>
<path class="cls-2" d="M537.7,886.713v2H521.468v22.814H502.534q-9.764,0-14.7,3.94a13.027,13.027,0,0,0-4.94,10.761,12.193,12.193,0,0,0,3.7,9.056,22.594,22.594,0,0,0,8.761,5.351,28.179,28.179,0,0,0,8.82,1.7,54.634,54.634,0,0,0,6.7-.47l-5.175-12.113a14.551,14.551,0,0,1,5.175-3.881,14.24,14.24,0,0,1,5.762-1.294q6,0,9.232,3.529a12.561,12.561,0,0,1,3.234,8.82,13.113,13.113,0,0,1-2.352,7.056,19.01,19.01,0,0,1-6.233,5.645l12.582,19.992-8.349,4.469-9.642-22.227a38.184,38.184,0,0,1-10.938,1.411,24.569,24.569,0,0,1-12.23-3.645,30.971,30.971,0,0,1-10.7-10.466,29.085,29.085,0,0,1-4.351-16q0-12.229,5.821-17.64t17.111-5.409H509V888.713H469.37l-4.351-8.349v-2.117h68.327Z"/>
<path class="cls-2" d="M614.607,888.713h-12V960.45H600.5l-10.467-6,.353-16.464-.353-.117a36.228,36.228,0,0,1-7.7,3.88,25.826,25.826,0,0,1-9.114,1.647,25.553,25.553,0,0,1-17.64-7.174q-7.881-7.172-12.113-19.757a40.02,40.02,0,0,0,12.642-6.174q4.762-3.7,4.763-8.879a12.376,12.376,0,0,0-1.588-6.056,37.069,37.069,0,0,0-5-6.645H537.343l-4.352-8.349v-2.117h77.147l4.469,8.466Zm-34.281,41.278a38.416,38.416,0,0,0,9.937-6.586V888.713H563.685v.235q9.408,10.231,9.408,15.876,0,5.53-5.527,10.408a40.678,40.678,0,0,1-12.112,7.468,9.682,9.682,0,0,0,4,7.409,14,14,0,0,0,8.584,2.7A28.315,28.315,0,0,0,580.326,929.991Z"/>
<path class="cls-2" d="M651.3,886.723v2h-12V960.46h-2.117l-10.349-5.881V888.723H614.488l-4.351-8.35v-2.117h18.816q-4-7.408-5.645-9.879-4.587-7.524-7.644-11.878a24.053,24.053,0,0,0-4.94-5.644l-14.7,4.587a12.2,12.2,0,0,1-3.234-4.235,12.662,12.662,0,0,1-1.235-5.527,8.214,8.214,0,0,1,2.646-6.468,9.641,9.641,0,0,1,6.645-2.352q8,0,14.112,6.527t12.466,18.875q2.7,4.939,7.879,15.877h11.172Z"/>
<path class="cls-2" d="M726.563,886.686V888.7h-12v72.423h-2.234l-10.349-5.936V888.7H677.522l.235,2.612q2,22.2,2,31.344a19.245,19.245,0,0,1-2.235,9.261q-2.235,4.158-8.467,4.155a11.517,11.517,0,0,1-7.526-2.493A15.167,15.167,0,0,1,657,927.527a17.468,17.468,0,0,1-1.47-6.648,17.713,17.713,0,0,1,.706-5.461l11.525,1.543.822-28.257H650.709l-4.351-8.429v-2.137h75.618Z"/>
<path class="cls-2" d="M561.61,750.1c-13.427-12.677,44.644,11.207,77.734,16.066,56.045,8.23,98.757,14.5,147.612-.118,17.736-5.308,45.081-16,75.014-39.459.948-.744-63.726-44.7-67.977-46.953-53.36-28.337-114.009-43.166-174.491-37.12-51.06,5.1-97.763,28.351-139.566,57.02-26.224,17.984-46.653,42.5-72.995,60.22-48.165,32.4-101.068,40.055-157.947,39.046a474.258,474.258,0,0,1-133.923-21.835S127.492,665.8,302.517,581.86c.893.893-176.811-56.258-205.387-175.918,0,0,139.306-90.191,308.08,18.753.893,1.786-20.539-163.416,118.766-292.006.893,0,141.985,146.449,87.513,298.257.893.893,145.556-93.764,301.828-51.793,1.786-.893-61.616,247.356-288.434,196.456.893,0,175.025-15.181,232.176-161.63,0,0-136.626-40.184-288.433,88.405,0,.893,64.426-197.444-44.518-324.248,0,0-114.433,157.26-70.677,315.318,0,.893-154.486-133.947-312.544-74.117.893,1.786,64.294,123.232,269.681,141.984,1.786.893-165.2,61.616-249.143,187.527,39.467,9.063,100.247,16.36,165.205-3.573,85.017-26.089,145.817-101.713,231.28-128.589,90.7-28.521,173.642-5,196.456,1.786,91.648,27.244,172.312,91.95,172.346,91.977,4.313,3.46-81.174,69.357-86.886,72.757C748.132,837.785,638.506,822.7,561.61,750.1Z"/>
</svg>