<svg width="120" height="120" viewBox="0 0 120 120" fill="none" xmlns="http://www.w3.org/2000/svg">
<path d="M120 0H0V120H120V0Z" fill="white"/>
<path d="M110 10H10V110H110V10Z" fill="#F37003"/>
<path d="M52.0742 73.52H70.1704V75.76H52.0742V73.52Z" fill="white"/>
<path d="M33.9779 34.7399V32.3599C30.8918 32.3599 28.3667 34.8799 28.3667 38.0999V42.8599C26.4028 43.4199 25 45.0999 25 47.1999C25 49.2999 26.4028 51.1199 28.3667 51.5399V56.2999C28.3667 59.3799 30.8918 62.0399 33.9779 62.0399V59.7999C32.1543 59.7999 30.6112 58.2599 30.6112 56.4399V38.2399C30.6112 36.2799 32.014 34.7399 33.9779 34.7399ZM27.1042 47.1999C27.1042 46.3599 27.5251 45.6599 28.2265 45.2399V49.1599C27.6653 48.8799 27.1042 48.0399 27.1042 47.1999Z" fill="#060606"/>
<path d="M95 47.1999C95 45.0999 93.598 43.2799 91.634 42.8599V38.0999C91.634 35.0199 89.1086 32.3599 86.0225 32.3599V34.5999C87.8461 34.5999 89.3892 36.1399 89.3892 37.9599V56.1599C89.3892 57.9799 87.8461 59.5199 86.0225 59.5199V61.7599C89.1086 61.7599 91.634 59.2399 91.634 56.0199V51.2599C93.598 51.1199 95 49.4399 95 47.1999ZM91.634 49.1599V45.2399C92.335 45.6599 92.756 46.3599 92.756 47.1999C92.756 48.0399 92.335 48.8799 91.634 49.1599Z" fill="#060606"/>
<path d="M74.6595 43.8401H79.1485V41.6001H74.6595V40.4801C74.6595 38.6601 73.1164 37.1201 71.2928 37.1201C70.872 37.1201 70.4511 37.2601 70.0303 37.4001C69.6094 36.0001 68.3469 34.8801 66.8038 34.8801C66.383 34.8801 65.9621 35.0201 65.5413 35.1601C65.1204 33.7601 63.8579 32.6401 62.3148 32.6401C61.4731 32.6401 60.6315 32.9201 60.0704 33.4801C59.5092 32.9201 58.6675 32.6401 57.8259 32.6401C56.0022 32.6401 54.4591 34.1801 54.4591 36.0001V37.1201H53.4772C51.6535 37.1201 49.8299 37.8201 48.5674 39.2201C47.8659 39.9201 47.3048 40.7601 47.0243 41.7401H40.9922V43.9801H46.6034V50.8401H40.9922V53.0801H46.6034V56.4401C46.6034 57.4201 47.0242 58.5401 47.5854 59.2401L51.0924 63.7201V90.6H71.4331V63.4401L73.2567 59.8001C73.5373 59.1001 73.6776 58.4001 73.6776 57.7001V52.8001H79.2888V50.5601H74.5193C74.6595 50.1401 74.6595 49.8601 74.6595 49.4401V43.8401ZM71.2928 39.2201C71.8539 39.2201 72.4151 39.7801 72.4151 40.3401V49.4401C72.4151 50.0001 71.8539 50.5601 71.2928 50.5601C70.7317 50.5601 70.1706 50.0001 70.1706 49.4401V40.3401C70.1706 39.7801 70.5914 39.2201 71.2928 39.2201ZM66.8038 36.9801C67.365 36.9801 67.9261 37.5401 67.9261 38.1001V49.4401C67.9261 50.0001 67.365 50.5601 66.8038 50.5601C66.2427 50.5601 65.6816 50.0001 65.6816 49.4401V38.1001C65.6816 37.5401 66.1024 36.9801 66.8038 36.9801ZM62.1746 34.7401C62.7357 34.7401 63.2968 35.3001 63.2968 35.8601V49.4401C63.2968 50.0001 62.7357 50.5601 62.1746 50.5601C61.6134 50.5601 61.0523 50.0001 61.0523 49.4401V43.0001C61.7537 42.4401 62.1746 41.4601 62.1746 40.4801C62.1746 39.5001 61.7537 38.5201 61.0523 37.9601V35.8601C61.0523 35.1601 61.6134 34.7401 62.1746 34.7401ZM58.2467 50.5601C57.5453 48.0401 56.4231 45.8001 54.7397 43.8401H58.8078V49.5801C58.8078 50.0001 58.5273 50.2801 58.2467 50.5601ZM56.5633 35.8601C56.5633 35.3001 57.1245 34.7401 57.6856 34.7401C58.2467 34.7401 58.8078 35.3001 58.8078 35.8601V36.9801H56.5633V35.8601ZM53.1966 71.1401H56.5633C55.8619 72.1201 55.4411 73.2401 55.4411 74.5001C55.4411 75.7601 55.8619 77.0201 56.5633 77.8601H53.1966V71.1401ZM57.6856 74.6401C57.6856 72.8201 59.2287 71.2801 61.0523 71.2801H68.908V78.0001H61.0523C59.2287 78.0001 57.6856 76.4601 57.6856 74.6401ZM53.1966 88.3601V80.3801H68.908V88.3601H53.1966ZM71.2928 57.8401C71.2928 58.2601 71.1525 58.5401 71.0122 58.8201L69.0483 62.8801V68.9001H53.1966V62.7401L49.1285 57.7001C48.8479 57.2801 48.5674 56.8601 48.5674 56.3001V43.9801C48.5674 42.7201 48.9882 41.6001 49.9702 40.6201C50.8118 39.7801 52.0744 39.2201 53.3369 39.2201H58.8078C59.3689 39.2201 59.9301 39.7801 59.9301 40.3401C59.9301 40.9001 59.3689 41.4601 58.8078 41.4601H52.0744V44.2601L52.3549 44.5401C55.0203 47.2001 56.5633 50.8401 56.5633 54.7601V56.3001H58.8078V54.7601C58.8078 54.0601 58.8078 53.3601 58.6675 52.6601C59.0884 52.5201 59.5092 52.2401 59.9301 51.9601C60.4912 52.5201 61.3329 52.8001 62.1746 52.8001C63.0162 52.8001 63.8579 52.5201 64.419 51.9601C64.9802 52.5201 65.8219 52.8001 66.6635 52.8001C67.5052 52.8001 68.3469 52.5201 68.908 51.9601C69.4692 52.5201 70.3108 52.8001 71.1525 52.8001V57.8401H71.2928Z" fill="#060606"/>
<path d="M37.3445 65.54C34.8194 65.54 32.8555 63.44 32.8555 60.92V33.62C32.8555 31.1 34.8194 29 37.3445 29C39.8695 29 41.8334 31.1 41.8334 33.62V61.06C41.8334 63.44 39.8695 65.54 37.3445 65.54Z" fill="white"/>
<path d="M82.655 65.54C80.1299 65.54 78.166 63.44 78.166 60.92V33.62C78.166 31.1 80.1299 29 82.655 29C85.18 29 87.144 31.1 87.144 33.62V61.06C87.144 63.44 85.0398 65.54 82.655 65.54Z" fill="white"/>
</svg>
