<svg width="200" height="77" viewBox="0 0 200 77" fill="none" xmlns="http://www.w3.org/2000/svg">
<path d="M0 0H200V77H0V0Z" fill="#F37003"/>
<path d="M76.6564 8.90203C80.0939 8.90336 83.8305 10.166 87.8661 12.69C92.3615 15.5528 96.6421 18.7193 100.676 22.1659L99.3156 23.9099C95.8116 21.0718 92.0798 18.5077 88.1556 16.2419C84.7043 14.298 81.5687 13.326 78.7487 13.326V13.278C76.673 13.3086 74.9708 13.81 73.6421 14.782C72.3134 15.754 71.6491 17.1339 71.6491 18.9219C71.6633 20.0734 71.8599 21.216 72.2321 22.3099C72.5504 23.3431 73.0894 24.6913 73.6421 25.6276H78.314L105.521 25.7254L107.263 29.6869H100.83V38.5354H93.1938C90.5688 38.5354 88.5927 39.0448 87.2656 40.0635C86.6144 40.5584 86.0943 41.1946 85.748 41.9201C85.4017 42.6456 85.2391 43.4397 85.2734 44.2373C85.2565 44.8901 85.3803 45.5392 85.6372 46.1437C85.894 46.7482 86.2782 47.295 86.7655 47.7497C87.7621 48.693 88.971 49.4032 90.2987 49.8251C91.4401 50.2264 92.641 50.449 93.8556 50.4844C94.7593 50.477 95.6617 50.4161 96.5576 50.3021L94.4706 45.6041C95.0401 44.9581 95.7533 44.4436 96.5576 44.0988C97.2872 43.7772 98.0788 43.6062 98.8813 43.5969C100.494 43.5969 101.735 44.0532 102.604 44.9657C103.483 45.9008 103.95 47.1269 103.909 48.3865C103.874 49.3677 103.544 50.3182 102.96 51.1232C102.303 52.0244 101.444 52.7725 100.446 53.3127L105.521 61.0667L102.154 62.8L98.2651 54.1792C96.83 54.5659 95.3442 54.7502 93.854 54.7264C92.1092 54.6812 90.4078 54.1935 88.9219 53.3127C87.1601 52.3192 85.6784 50.9254 84.6068 49.2534C83.4082 47.3924 82.7986 45.2362 82.8521 43.0477C82.8521 39.8857 83.6346 37.6051 85.1996 36.2059C86.7646 34.8068 89.0648 34.1075 92.1001 34.108H95.8015V29.5H80L75.0521 29.4578V58.1535H74.1755L69.8959 55.8015V29.4578L64.6655 29.4479L62.8638 26.1067V25.6276H70.5C67.7103 22.2063 66.1993 18.8886 66.1993 16.3819C66.1815 14.9908 66.6442 13.6338 67.5142 12.526C68.4759 11.3331 69.7532 10.414 71.2108 9.866C72.942 9.19859 74.7931 8.87092 76.6564 8.90203Z" fill="white"/>
<path d="M59.7947 29.4479H64.6655L62.8638 26.1067V25.6276L31.0587 25.2625V26.1067L32.9101 29.4479H39.6779V40.5996C38.2407 41.5776 36.5191 42.089 34.7615 42.0601C33.6045 42.0429 32.4557 41.8691 31.3486 41.5439C30.1883 41.2276 29.0632 40.8014 27.9896 40.2715C28.7763 39.5407 29.4019 38.6639 29.829 37.6937C30.2561 36.7235 30.4757 35.6799 30.4747 34.6256C30.4196 33.02 29.8765 31.4656 28.9132 30.1561C27.8918 28.6358 26.5787 27.3183 25.0448 26.2748C23.4999 25.2238 22.0627 24.6983 20.7331 24.6983C19.3207 24.7647 17.9332 25.0836 16.641 25.6386C15.1702 26.186 13.7782 26.9135 12.4992 27.8033L14.9843 32.4128C16.0878 31.3982 17.3243 30.5278 18.6622 29.824C19.8265 29.2354 21.1214 28.9292 22.4354 28.9317C23.5943 28.9045 24.7197 29.3084 25.5791 30.0601C25.9765 30.3747 26.2981 30.7694 26.5212 31.2166C26.7444 31.6637 26.8639 32.1526 26.8713 32.6489C26.9056 33.4835 26.6951 34.3105 26.2643 35.0347C25.8334 35.7589 25.1997 36.3508 24.4359 36.7423C23.105 37.4639 20.7663 37.9347 17.4197 38.1548L16.8854 39.3311L18.9314 42.9083C21.2078 42.6365 23.4565 42.1801 25.6536 41.5439C26.2768 42.1577 26.7659 42.8864 27.0918 43.6865C27.4177 44.4866 27.5737 45.3419 27.5506 46.2015C27.5552 46.8589 27.4142 47.5096 27.137 48.11C26.8598 48.7105 26.4529 49.2467 25.9436 49.6826C24.8315 50.6706 23.3612 51.1953 21.8514 51.1431C19.804 51.1431 17.7593 50.3348 15.7174 48.7183C13.5689 46.9912 11.7118 44.9514 10.2129 42.6723L8.55615 43.8487C10.3503 46.9176 12.5701 49.7353 15.1541 52.2235C16.3011 53.3465 17.6713 54.2339 19.1824 54.8321C20.6935 55.4303 22.3143 55.7271 23.9472 55.7046C26.3495 55.7046 28.2892 55.0071 29.7665 53.6119C31.2437 52.2168 31.9823 50.3588 31.9823 48.0381C32.008 46.6677 31.6911 45.3116 31.0587 44.0847L31.2534 44.0367C32.1343 44.7588 33.1194 45.3533 34.1775 45.8013C35.1046 46.1652 36.0969 46.3488 37.0975 46.3415C37.9667 46.3552 38.8296 46.1959 39.6323 45.8733H39.6779V55.8007L43.9191 58.1535H44.793V29.4479H54.634V55.8007L58.9208 58.1535H59.7947V29.4479Z" fill="white"/>
<path fill-rule="evenodd" clip-rule="evenodd" d="M134.093 29.8672H139.019L144.149 29.8667V55.9078L148.355 58.2512H149.216V29.8667H154.19H161.468L161.134 40.942L156.44 40.3372C156.229 41.0319 156.132 41.7541 156.153 42.4777C156.173 43.3756 156.376 44.2609 156.752 45.0833C157.148 46.0111 157.783 46.8272 158.596 47.4554C159.465 48.1199 160.551 48.4662 161.66 48.4325C163.352 48.4333 164.502 47.8905 165.108 46.804C165.723 45.6866 166.036 44.4384 166.019 43.1741C166.019 40.7848 165.747 36.6897 165.204 30.8889L165.108 29.8651H175.068V55.9246L179.282 58.2512H180.192V29.8651H185.079V29.0757L183.211 25.7254H152.418H147.857C146.454 22.8197 145.121 20.4341 144.389 19.122C142.667 15.8418 140.979 13.3347 139.323 11.6008C137.667 9.86696 135.755 9 133.587 9C132.599 8.96698 131.634 9.30177 130.886 9.9372C130.525 10.2628 130.241 10.6627 130.055 11.1082C129.869 11.5536 129.786 12.0338 129.811 12.5145C129.807 13.2764 129.978 14.0293 130.313 14.7169C130.619 15.3675 131.068 15.9437 131.627 16.4044L137.602 14.5766C138.387 15.2187 139.064 15.9776 139.61 16.8256C140.438 17.9823 141.473 19.5599 142.716 21.5587C143.162 22.2151 143.916 23.7574 145 25.7254H137.184H105.521L107.263 29.6869H114.218C115.003 30.4863 115.732 31.5478 116.312 32.4956C116.738 33.2273 116.963 34.0524 116.963 34.8918C116.963 36.2579 116.312 37.4289 115.009 38.4049C113.442 39.5082 111.685 40.3353 109.82 40.8478C110.978 44.1674 112.635 46.7732 114.791 48.665C116.735 50.4751 119.329 51.492 122.032 51.5035C123.309 51.5053 124.576 51.2846 125.772 50.8518C126.885 50.4632 127.946 49.9478 128.933 49.3167L129.077 49.3629L128.933 55.8772L133.229 58.2512H134.093V29.8672ZM129.027 43.5937C127.816 44.6616 126.44 45.5408 124.949 46.1996C123.376 46.9319 121.652 47.313 119.905 47.3146C118.641 47.3419 117.402 46.9664 116.382 46.2463C115.897 45.9083 115.497 45.4692 115.213 44.9616C114.929 44.454 114.767 43.891 114.74 43.3148C116.564 42.619 118.247 41.6188 119.711 40.3599C121.224 39.0732 121.98 37.7005 121.98 36.2418C121.98 34.7528 120.693 32.6589 118.118 29.9602V29.8672H129.027V43.5937Z" fill="white"/>
</svg>
