<svg width="200" height="77" viewBox="0 0 200 77" fill="none" xmlns="http://www.w3.org/2000/svg">
<path d="M0 0H200V77H0V0Z" fill="#F37003"/>
<path d="M76.6564 9.90202C80.0939 9.90336 83.8305 11.166 87.8661 13.69C92.3615 16.5528 96.6421 19.7193 100.676 23.1659L99.3156 24.9099C95.8116 22.0718 92.0798 19.5077 88.1556 17.2419C84.7043 15.298 81.5687 14.326 78.7487 14.326V14.278C76.673 14.3086 74.9708 14.81 73.6421 15.782C72.3134 16.754 71.6491 18.1339 71.6491 19.9219C71.6633 21.0734 71.8599 22.216 72.2321 23.3099C72.5504 24.3431 72.9902 25.3376 73.5428 26.2738H78.116L78.314 26.6276H105.62L107.376 29.9112V30.6869H100.83V39.5354H93.1939C90.5688 39.5354 88.5927 40.0448 87.2656 41.0635C86.6144 41.5584 86.0943 42.1947 85.748 42.9201C85.4017 43.6456 85.2391 44.4397 85.2734 45.2373C85.2565 45.8901 85.3803 46.5392 85.6372 47.1437C85.894 47.7482 86.2782 48.295 86.7656 48.7497C87.7621 49.693 88.971 50.4032 90.2987 50.8251C91.4401 51.2264 92.641 51.449 93.8556 51.4844C94.7593 51.477 95.6617 51.4161 96.5576 51.3021L94.4706 46.6041C95.0401 45.9581 95.7533 45.4436 96.5576 45.0988C97.2872 44.7772 98.0788 44.6062 98.8813 44.5969C100.494 44.5969 101.735 45.0532 102.604 45.9657C103.483 46.9008 103.95 48.1269 103.909 49.3865C103.874 50.3677 103.544 51.3182 102.96 52.1232C102.303 53.0244 101.444 53.7725 100.446 54.3127L105.521 62.0667L102.154 63.8L98.2651 55.1792C96.83 55.5659 95.3442 55.7502 93.854 55.7264C92.1092 55.6812 90.4078 55.1935 88.9219 54.3127C87.1601 53.3192 85.6784 51.9254 84.6068 50.2534C83.4082 48.3924 82.7986 46.2362 82.8521 44.0477C82.8521 40.8857 83.6346 38.6051 85.1996 37.2059C86.7646 35.8068 89.0648 35.1075 92.1001 35.108H95.8015V30.6869H79.8194L79.6953 30.4578H75.0521V59.1535H74.1755L69.8959 56.8015V30.4578H64.7893L62.9906 27.1178V26.2738H70.3838C67.5941 22.8525 66.1993 19.8886 66.1993 17.3819C66.1815 15.9908 66.6442 14.6338 67.5142 13.526C68.4759 12.3331 69.7532 11.414 71.2108 10.866C72.942 10.1986 74.7931 9.87092 76.6564 9.90202Z" fill="white"/>
<path d="M59.7947 30.4479H64.6655L62.8638 27.1067V26.2625H31.0587V27.1067L32.9101 30.4479H39.6779V41.5996C38.2407 42.5776 36.5191 43.089 34.7615 43.0601C33.6045 43.0429 32.4557 42.8691 31.3486 42.5439C30.1883 42.2276 29.0632 41.8014 27.9896 41.2715C28.7763 40.5407 29.4019 39.6639 29.829 38.6937C30.2561 37.7235 30.4757 36.6799 30.4747 35.6256C30.4196 34.02 29.8765 32.4656 28.9132 31.1561C27.8918 29.6358 26.5787 28.3183 25.0448 27.2748C23.4999 26.2238 22.0627 25.6983 20.7331 25.6983C19.3207 25.7647 17.9332 26.0836 16.641 26.6386C15.1702 27.186 13.7782 27.9135 12.4992 28.8033L14.9843 33.4128C16.0878 32.3982 17.3243 31.5278 18.6622 30.824C19.8265 30.2354 21.1214 29.9292 22.4354 29.9317C23.5943 29.9045 24.7197 30.3084 25.5791 31.0601C25.9765 31.3747 26.2981 31.7694 26.5212 32.2166C26.7444 32.6637 26.8639 33.1526 26.8713 33.6489C26.9056 34.4835 26.6951 35.3105 26.2643 36.0347C25.8334 36.7589 25.1997 37.3508 24.4359 37.7423C23.105 38.4639 20.7663 38.9347 17.4197 39.1547L16.8854 40.3311L18.9314 43.9083C21.2078 43.6365 23.4565 43.1801 25.6536 42.5439C26.2768 43.1577 26.7659 43.8864 27.0918 44.6865C27.4177 45.4866 27.5737 46.3419 27.5506 47.2015C27.5552 47.8589 27.4142 48.5096 27.137 49.11C26.8598 49.7105 26.4529 50.2467 25.9436 50.6826C24.8315 51.6706 23.3612 52.1953 21.8514 52.1431C19.804 52.1431 17.7593 51.3348 15.7174 49.7183C13.5689 47.9912 11.7118 45.9514 10.2129 43.6723L8.55615 44.8487C10.3503 47.9176 12.5701 50.7353 15.1541 53.2235C16.3011 54.3465 17.6713 55.2339 19.1824 55.8321C20.6935 56.4303 22.3143 56.7271 23.9472 56.7046C26.3495 56.7046 28.2892 56.0071 29.7665 54.6119C31.2437 53.2168 31.9823 51.3588 31.9823 49.0381C32.008 47.6677 31.6911 46.3116 31.0587 45.0847L31.2534 45.0367C32.1343 45.7588 33.1194 46.3533 34.1775 46.8013C35.1046 47.1652 36.0969 47.3488 37.0975 47.3415C37.9667 47.3552 38.8296 47.1959 39.6323 46.8733H39.6779V56.8007L43.9191 59.1535H44.793V30.4479H54.634V56.8007L58.9208 59.1535H59.7947V30.4479Z" fill="white"/>
<path fill-rule="evenodd" clip-rule="evenodd" d="M135.111 30.7694H140.036V30.3558L140.149 30.5682H145.167V56.81L149.373 59.1535H150.233V30.5682H155.1L155.207 30.7689H162.486L162.151 41.8442L157.458 41.2395C157.247 41.9341 157.15 42.6563 157.171 43.3799C157.191 44.2778 157.394 45.1632 157.769 45.9855C158.166 46.9134 158.801 47.7294 159.613 48.3576C160.483 49.0222 161.569 49.3684 162.678 49.3348C164.37 49.3355 165.519 48.7927 166.126 47.7062C166.741 46.5888 167.054 45.3406 167.036 44.0764C167.036 41.687 166.765 37.592 166.222 31.7911L166.126 30.7674H176.086V56.8269L180.3 59.1535H181.21V30.7674H186.096V29.978L184.228 26.6276H153.436V26.8498L153.149 26.3508H148.609C147.206 23.4451 146.138 21.3363 145.407 20.0242C143.685 16.744 141.996 14.237 140.34 12.5031C138.684 10.7692 136.772 9.90223 134.605 9.90223C133.616 9.86921 132.651 10.204 131.904 10.8394C131.543 11.1651 131.259 11.5649 131.073 12.0104C130.887 12.4559 130.804 12.9361 130.829 13.4168C130.824 14.1786 130.996 14.9316 131.331 15.6191C131.637 16.2697 132.085 16.846 132.645 17.3067L138.619 15.4789C139.404 16.121 140.082 16.8799 140.627 17.7278C141.455 18.8845 142.491 20.4622 143.734 22.4609C144.18 23.1173 144.944 24.4295 146.028 26.3974H138.381V26.9541L138.202 26.6276H106.538V27.4652L108.324 30.7686H115.277C116.061 31.5681 116.75 32.45 117.329 33.3979C117.756 34.1295 117.98 34.9546 117.981 35.794C117.981 37.1601 117.329 38.3312 116.026 39.3072C114.46 40.4104 112.703 41.2375 110.837 41.75C111.995 45.0697 113.653 47.6754 115.809 49.5672C117.753 51.3773 120.347 52.3942 123.049 52.4057C124.327 52.4076 125.594 52.1868 126.79 51.7541C127.903 51.3654 128.964 50.8501 129.95 50.2189L130.095 50.2652L129.95 56.7794L134.246 59.1535H135.111V30.7694ZM130.045 44.496C128.834 45.5639 127.458 46.4431 125.966 47.1018C124.393 47.8341 122.669 48.2152 120.923 48.2168C119.658 48.2442 118.42 47.8687 117.4 47.1485C116.915 46.8106 116.515 46.3714 116.231 45.8638C115.947 45.3562 115.785 44.7933 115.758 44.217C117.582 43.5213 119.265 42.521 120.729 41.2621C122.241 39.9754 122.997 38.6027 122.997 37.144C122.997 35.655 121.71 33.5611 119.136 30.8624V30.7694H130.045V44.496Z" fill="white"/>
</svg>
