<svg width="4096" height="4096" viewBox="0 0 4096 4096" fill="none" xmlns="http://www.w3.org/2000/svg">
<g clip-path="url(#clip0_59_7086)">
<path d="M2048 4096C3179.08 4096 4096 3179.08 4096 2048C4096 916.921 3179.08 0 2048 0C916.921 0 0 916.921 0 2048C0 3179.08 916.921 4096 2048 4096Z" fill="#F37003"/>
<path d="M1731.64 3306.84H1684.6V3593.8H1676.16L1634.76 3570.28V3306.84H1539.72V3593.8H1531.28L1490.32 3570.28V3471.04H1489.88C1482.13 3474.26 1473.8 3475.86 1465.4 3475.72C1455.74 3475.79 1446.15 3473.96 1437.2 3470.32C1426.98 3465.84 1417.47 3459.9 1408.96 3452.68L1407.08 3453.16C1413.19 3465.42 1416.25 3478.98 1416 3492.68C1416 3515.88 1408.87 3534.45 1394.6 3548.4C1380.34 3562.35 1361.6 3569.32 1338.4 3569.32C1322.63 3569.54 1306.98 3566.58 1292.39 3560.6C1277.79 3554.62 1264.56 3545.75 1253.48 3534.52C1228.53 3509.65 1207.09 3481.48 1189.76 3450.8L1205.76 3439.04C1220.24 3461.82 1238.17 3482.21 1258.92 3499.48C1278.64 3515.64 1298.39 3523.72 1318.16 3523.72C1332.74 3524.24 1346.94 3519 1357.68 3509.12C1362.6 3504.76 1366.53 3499.4 1369.21 3493.4C1371.88 3487.4 1373.25 3480.89 1373.2 3474.32C1373.43 3465.73 1371.92 3457.18 1368.77 3449.18C1365.62 3441.18 1360.9 3433.9 1354.88 3427.76C1333.66 3434.12 1311.95 3438.68 1289.96 3441.4L1270.2 3405.64L1275.36 3393.88C1307.68 3391.68 1330.27 3386.97 1343.12 3379.76C1350.5 3375.85 1356.62 3369.93 1360.78 3362.69C1364.94 3355.45 1366.97 3347.18 1366.64 3338.84C1366.57 3333.88 1365.42 3328.99 1363.26 3324.52C1361.11 3320.05 1358 3316.1 1354.16 3312.96C1345.86 3305.45 1334.99 3301.41 1323.8 3301.68C1311.11 3301.65 1298.61 3304.72 1287.36 3310.6C1274.44 3317.64 1262.5 3326.34 1251.84 3336.48L1227.84 3290.4C1240.19 3281.5 1253.64 3274.23 1267.84 3268.76C1280.32 3263.21 1293.72 3260.02 1307.36 3259.36C1320.2 3259.36 1334.08 3264.61 1349 3275.12C1363.82 3285.55 1376.5 3298.72 1386.36 3313.92C1395.66 3327.01 1400.91 3342.55 1401.44 3358.6C1401.45 3369.14 1399.33 3379.57 1395.21 3389.27C1391.08 3398.97 1385.04 3407.73 1377.44 3415.04C1387.81 3420.34 1398.68 3424.6 1409.88 3427.76C1420.57 3431.01 1431.67 3432.75 1442.84 3432.92C1459.82 3433.21 1476.44 3428.1 1490.32 3418.32V3306.84H1424.96L1407.08 3273.44V3265H1714.24V3273.44L1731.64 3306.84Z" fill="white"/>
<path d="M1954.88 3139.16C1915.84 3113.92 1879.69 3101.29 1846.44 3101.28C1828.41 3100.97 1810.51 3104.24 1793.76 3110.92C1779.66 3116.4 1767.3 3125.59 1758 3137.52C1749.58 3148.6 1745.11 3162.17 1745.28 3176.08C1745.28 3201.14 1758.77 3230.78 1785.76 3265H1714.24V3273.44L1731.64 3306.84H1781.04V3570.28L1822.44 3593.8H1830.92V3306.84H1878.88V3298.84L1860.56 3265H1816.32C1810.97 3255.64 1806.72 3245.69 1803.64 3235.36C1800.04 3224.42 1798.14 3212.99 1798 3201.48C1798 3183.6 1804.42 3169.8 1817.28 3160.08C1830.13 3150.36 1846.6 3145.34 1866.68 3145.04V3145.52C1893.96 3145.52 1924.29 3155.24 1957.68 3174.68C1995.64 3197.34 2031.74 3222.98 2065.64 3251.36L2078.8 3233.92C2039.78 3199.45 1998.37 3167.79 1954.88 3139.16Z" fill="white"/>
<path d="M2150.8 3298.85V3306.85H2085.87V3398.1H2010.13C1984.1 3398.1 1964.5 3403.36 1951.33 3413.86C1944.87 3418.97 1939.72 3425.53 1936.28 3433.01C1932.85 3440.49 1931.23 3448.68 1931.57 3456.91C1931.41 3463.64 1932.63 3470.34 1935.18 3476.57C1937.73 3482.8 1941.54 3488.44 1946.37 3493.13C1956.26 3502.86 1968.25 3510.19 1981.42 3514.54C1992.74 3518.67 2004.65 3520.97 2016.7 3521.34C2025.66 3521.26 2034.61 3520.63 2043.5 3519.46L2022.8 3471C2028.45 3464.34 2035.52 3459.04 2043.5 3455.48C2050.73 3452.16 2058.59 3450.4 2066.55 3450.3C2082.55 3450.3 2094.86 3455.01 2103.47 3464.42C2112.19 3474.06 2116.82 3486.71 2116.41 3499.7C2116.06 3509.82 2112.8 3519.62 2107 3527.92C2100.48 3537.22 2091.96 3544.93 2082.07 3550.5L2132.4 3630.47L2099 3648.35L2060.43 3559.44C2046.2 3563.43 2031.46 3565.33 2016.68 3565.08C1999.38 3564.62 1982.5 3559.59 1967.76 3550.5C1950.29 3540.26 1935.59 3525.88 1924.96 3508.64C1913.07 3489.45 1907.03 3467.21 1907.56 3444.64C1907.56 3412.03 1915.32 3388.51 1930.84 3374.08C1946.36 3359.65 1969.18 3352.44 1999.29 3352.44H2036V3306.85H1877.48L1860.07 3273.45V3264.98H2133.38L2150.8 3298.85Z" fill="white"/>
<path d="M2458.43 3306.86H2410.43V3593.8H2402L2360.13 3569.8L2361.54 3503.95L2360.13 3503.48C2350.52 3509.86 2340.18 3515.07 2329.33 3519C2317.68 3523.38 2305.33 3525.61 2292.88 3525.59C2266.54 3525.47 2241.26 3515.19 2222.32 3496.89C2201.3 3477.77 2185.15 3451.42 2173.86 3417.86C2192.05 3412.68 2209.17 3404.32 2224.43 3393.17C2237.13 3383.3 2243.48 3371.46 2243.48 3357.65C2243.48 3349.17 2241.29 3340.83 2237.13 3333.43C2231.48 3323.85 2224.78 3314.93 2217.13 3306.85H2149.37L2131.96 3273.45V3264.98H2440.55L2458.43 3298.85V3306.86ZM2321.3 3471.97C2335.84 3465.31 2349.25 3456.42 2361.05 3445.62V3306.86H2254.74V3307.8C2279.83 3335.08 2292.37 3356.25 2292.37 3371.3C2292.37 3386.05 2285 3399.92 2270.26 3412.93C2256 3425.66 2239.6 3435.77 2221.82 3442.8C2222.08 3448.63 2223.66 3454.32 2226.43 3459.45C2229.2 3464.58 2233.09 3469.02 2237.82 3472.44C2247.76 3479.72 2259.83 3483.52 2272.15 3483.24C2289.18 3483.22 2305.98 3479.37 2321.3 3471.97Z" fill="white"/>
<path d="M2605.2 3298.9V3306.9H2557.2V3593.84H2548.73L2507.33 3570.32V3306.9H2457.95L2440.55 3273.5V3265.03H2515.81C2505.14 3245.27 2497.62 3232.1 2493.23 3225.51C2481 3205.45 2470.81 3189.61 2462.65 3178C2457.29 3169.49 2450.62 3161.87 2442.89 3155.42L2384.09 3173.77C2378.59 3169.15 2374.17 3163.36 2371.16 3156.83C2367.86 3149.93 2366.18 3142.37 2366.22 3134.72C2365.97 3129.9 2366.79 3125.08 2368.62 3120.61C2370.45 3116.13 2373.24 3112.12 2376.8 3108.85C2384.16 3102.47 2393.65 3099.11 2403.38 3099.44C2424.72 3099.44 2443.53 3108.15 2459.83 3125.55C2476.13 3142.96 2492.75 3168.12 2509.69 3201.05C2516.89 3214.22 2527.4 3235.39 2541.21 3264.56H2585.9L2605.2 3298.9Z" fill="white"/>
<path d="M2906.25 3298.75V3306.8H2858.25V3596.49H2849.32L2807.92 3572.75V3306.8H2710.09L2711.03 3317.25C2716.36 3376.45 2719.03 3418.24 2719.03 3442.63C2719.2 3455.53 2716.13 3468.27 2710.09 3479.67C2704.13 3490.76 2692.84 3496.3 2676.22 3496.29C2665.32 3496.63 2654.66 3493.1 2646.12 3486.32C2638.13 3479.91 2631.9 3471.58 2628 3462.11C2624.32 3453.72 2622.32 3444.68 2622.12 3435.52C2621.92 3428.13 2622.87 3420.76 2624.95 3413.67L2671.05 3419.85L2674.33 3306.82H2602.84L2585.43 3273.1V3264.55H2887.91L2906.25 3298.75Z" fill="white"/>
<path d="M2260.51 1793.19C2241.13 1768.65 2219.33 1756.11 2140.79 1694.09C2049.77 1622.23 2060.53 1629.26 2062.78 1619.98C2065.07 1609.63 2066.5 1599.12 2067.06 1588.55C2077.33 1523.42 2047.49 1517.56 2040.33 1498.35C2039.19 1495.28 2036.54 1496.51 2034.55 1488.92C2033.39 1488.69 2032.2 1488.84 2031.14 1489.35C2030.08 1489.86 2029.22 1490.71 2028.69 1491.76C2025.17 1496.36 2021.9 1501.15 2018.89 1506.11C1979.54 1575.16 1987.46 1556.33 1988.43 1606.91C1988.92 1632.69 1995.33 1632.65 1987.19 1639.75C1938.53 1682.13 1835.13 1743.57 1791.17 1783.59C1781.56 1792.35 1786.47 1789.65 1761.57 1812.23C1759.31 1813.93 1757.65 1816.3 1756.83 1819C1755.48 1823.52 1754.77 1828.2 1754.71 1832.91C1756.79 1856.69 1760.58 1880.3 1766.05 1903.54C1799.91 2056.61 1793.11 2041.93 1830.72 2135.85C1830.82 2136.14 1859.61 2203.09 1862.72 2216.41C1873.8 2263.59 1881.9 2295.92 1886.73 2318.93H2126.31C2131.84 2293.9 2140.53 2268.48 2151.28 2234.6C2160.82 2204.43 2150.82 2224.85 2210.63 2098.69C2233.44 2050.63 2240.27 2021.76 2275.4 1894.37C2298.64 1810.2 2284.88 1824.09 2260.51 1793.19ZM2028.4 1590.16C2030.33 1592.64 2028.44 1594.2 2026.81 1596.23C2025.92 1593.71 2025.89 1591.76 2028.4 1590.16ZM2211.89 1857.12C2201.96 1882.1 2198.79 1920.64 2164.51 1990.3C2156.43 2006.7 2144.5 2032.65 2138.56 2042.61C2125.52 2064.45 2125.42 2078.01 2117.41 2088.58C2111.76 2096.11 2110 2090.84 2098.65 2094.67C2096.6 2095.56 2094.37 2095.95 2092.15 2095.8C2089.92 2095.65 2087.76 2094.98 2085.84 2093.83C2082.9 2091.95 2079.54 2093.03 2076.66 2092.97C2067.9 2086.21 2067.54 2045.8 2065.58 2030.69C2073.72 2024.92 2079.51 2021.37 2083.5 2011.59C2098.92 1973.81 2094.64 1966.99 2100.03 1962.22C2107.42 1955.75 2107.38 1950.86 2110 1925.91C2110.78 1918.56 2110.52 1912.05 2104.97 1908.42C2120.55 1889.13 2117.55 1858.63 2102.35 1838.38C2084.44 1814.51 2067.51 1810.03 2055.65 1789.91C2056.63 1788.1 2057.71 1786.31 2058.56 1784.44C2061.3 1778.38 2055.81 1777.67 2057.12 1774.28C2060.19 1766.42 2051.56 1764.06 2049.67 1755.3C2044.47 1731.55 2021.73 1748.47 2007.64 1745.46C1994.86 1742.74 1985.81 1752.78 1975.42 1764.99C1970.22 1771.11 1973.69 1774.17 1977.09 1778.38C1976.07 1780.66 1973.26 1782.39 1974.01 1785.02C1975.43 1789.8 1979.86 1792.44 1971.46 1796.53C1929.5 1816.97 1933.23 1855.15 1918.98 1871.44C1907.96 1884 1910.97 1902.04 1920.29 1916.8C1910.35 1921.19 1909.44 1923.24 1915.88 1942.93C1921.53 1960.27 1915.52 1966.42 1930.78 1974.56C1934.44 1991.58 1936.63 2013.22 1962.87 2026.75C1973.85 2032.4 1965.71 2079.57 1965.06 2084.87C1964.44 2089.8 1955.61 2095.53 1950.58 2096.09C1936.13 2097.67 1938.22 2099.62 1935.32 2094.98C1900.74 2039.66 1902.24 2043.58 1887.04 2009.06C1819.72 1856.25 1830.47 1858.95 1832.14 1857.45C1871.56 1822.66 1875.97 1818.88 1898.53 1799.65C1999.22 1713.79 2021.05 1655.63 2032.75 1669.56C2077.2 1722.31 2123.21 1784.15 2194.78 1840.09C2214.13 1855.21 2213.58 1852.75 2211.89 1857.12Z" fill="white"/>
<path d="M2224.29 2624.36C2176.87 2579.59 2381.95 2663.93 2498.8 2681.09C2696.72 2710.16 2847.56 2732.3 3020.09 2680.68C3082.72 2661.93 3179.29 2624.17 3284.99 2541.33C3288.34 2538.7 3059.95 2383.47 3044.94 2375.52C2856.5 2275.45 2642.32 2223.08 2428.73 2244.43C2248.41 2262.44 2083.49 2344.55 1935.86 2445.79C1843.25 2509.3 1771.11 2595.88 1678.08 2658.46C1507.99 2772.87 1321.17 2799.91 1120.3 2796.34C959.772 2793.44 800.494 2767.47 647.358 2719.24C647.358 2719.24 691.222 2326.65 1309.31 2030.22C1312.47 2033.38 684.915 1831.55 584 1408.98C584 1408.98 1075.95 1090.47 1671.97 1475.2C1675.12 1481.51 1599.44 898.109 2091.39 444C2094.54 444 2592.8 961.177 2400.43 1497.28C2403.59 1500.43 2914.46 1166.16 3466.32 1314.38C3472.63 1311.22 3248.73 2187.9 2447.73 2008.15C2450.89 2008.15 3065.83 1954.54 3267.65 1437.36C3267.65 1437.36 2785.16 1295.45 2249.06 1749.56C2249.06 1752.71 2476.58 1052.3 2091.85 604.494C2091.85 604.494 1687.74 1159.85 1842.26 1718.02C1842.26 1721.18 1296.7 1245 738.526 1456.28C741.679 1462.59 965.577 1891.47 1690.89 1957.69C1697.2 1960.85 1107.5 2175.29 811.055 2619.93C950.43 2651.94 1165.07 2677.71 1394.47 2607.32C1694.7 2515.18 1909.41 2248.12 2211.22 2153.21C2531.52 2052.49 2824.43 2135.55 2905 2159.52C3228.65 2255.73 3513.51 2484.24 3513.63 2484.33C3528.86 2496.55 3226.97 2729.26 3206.79 2741.27C2882.98 2934.01 2495.84 2880.74 2224.29 2624.36Z" fill="white"/>
</g>
<defs>
<clipPath id="clip0_59_7086">
<rect width="4096" height="4096" fill="white"/>
</clipPath>
</defs>
</svg>
