<svg width="49" height="49" viewBox="0 0 49 49" fill="none" xmlns="http://www.w3.org/2000/svg">
<path d="M11.2086 25.4779C11.4545 25.373 11.7189 25.3184 11.9863 25.3175C12.2536 25.3165 12.5184 25.3691 12.7651 25.4723C13.0117 25.5754 13.2352 25.7269 13.4223 25.9179C13.6093 26.1089 13.7562 26.3354 13.8542 26.5842C13.9523 26.8329 13.9994 27.0987 13.9929 27.366C13.9864 27.6332 13.9264 27.8965 13.8165 28.1402C13.7065 28.3838 13.5488 28.603 13.3527 28.7847C13.1565 28.9663 12.926 29.1068 12.6746 29.1979C11.3377 29.7247 10.1903 30.6416 9.38163 31.8294C8.57299 33.0172 8.14056 34.4209 8.14062 35.8579V39.3379C8.14062 39.8683 8.35134 40.377 8.72641 40.7521C9.10148 41.1272 9.61019 41.3379 10.1406 41.3379H26.1406C26.6711 41.3379 27.1798 41.1272 27.5548 40.7521C27.9299 40.377 28.1406 39.8683 28.1406 39.3379V36.0439C28.1409 34.5608 27.6903 33.1127 26.8488 31.8916C26.0073 30.6704 24.8146 29.7338 23.4286 29.2059C23.1757 29.1181 22.943 28.9805 22.7442 28.8011C22.5455 28.6217 22.3848 28.4043 22.2717 28.1616C22.1585 27.919 22.0953 27.6561 22.0856 27.3886C22.076 27.121 22.1201 26.8543 22.2155 26.6041C22.3108 26.3539 22.4554 26.1255 22.6407 25.9322C22.826 25.739 23.0482 25.5849 23.2941 25.4791C23.5401 25.3734 23.8047 25.3181 24.0724 25.3165C24.3401 25.3149 24.6055 25.367 24.8526 25.4699C26.9958 26.2862 28.8404 27.7346 30.1419 29.6229C31.4434 31.5112 32.1405 33.7505 32.1406 36.0439V39.3379C32.1406 40.9292 31.5085 42.4553 30.3833 43.5805C29.258 44.7058 27.7319 45.3379 26.1406 45.3379H10.1406C8.54933 45.3379 7.0232 44.7058 5.89798 43.5805C4.77277 42.4553 4.14063 40.9292 4.14062 39.3379V35.8579C4.1409 33.6182 4.81518 31.4304 6.07575 29.5792C7.33632 27.7279 9.12483 26.2989 11.2086 25.4779V25.4779ZM18.1406 5.33789C20.2624 5.33789 22.2972 6.18075 23.7975 7.68104C25.2978 9.18133 26.1406 11.2162 26.1406 13.3379V17.3379C26.1406 19.4596 25.2978 21.4945 23.7975 22.9947C22.2972 24.495 20.2624 25.3379 18.1406 25.3379C16.0189 25.3379 13.9841 24.495 12.4838 22.9947C10.9835 21.4945 10.1406 19.4596 10.1406 17.3379V13.3379C10.1406 11.2162 10.9835 9.18133 12.4838 7.68104C13.9841 6.18075 16.0189 5.33789 18.1406 5.33789V5.33789ZM18.1406 9.33789C17.0798 9.33789 16.0623 9.75932 15.3122 10.5095C14.5621 11.2596 14.1406 12.277 14.1406 13.3379V17.3379C14.1406 18.3988 14.5621 19.4162 15.3122 20.1663C16.0623 20.9165 17.0798 21.3379 18.1406 21.3379C19.2015 21.3379 20.2189 20.9165 20.9691 20.1663C21.7192 19.4162 22.1406 18.3988 22.1406 17.3379V13.3379C22.1406 12.277 21.7192 11.2596 20.9691 10.5095C20.2189 9.75932 19.2015 9.33789 18.1406 9.33789ZM36.1406 43.3379C35.6102 43.3379 35.1015 43.1272 34.7264 42.7521C34.3513 42.377 34.1406 41.8683 34.1406 41.3379C34.1406 40.8075 34.3513 40.2987 34.7264 39.9237C35.1015 39.5486 35.6102 39.3379 36.1406 39.3379H38.1406C38.6711 39.3379 39.1798 39.1272 39.5548 38.7521C39.9299 38.377 40.1406 37.8683 40.1406 37.3379V33.6619C40.1405 32.2402 39.6931 30.8546 38.8618 29.7013C38.0305 28.548 36.8574 27.6854 35.5086 27.2359C35.2594 27.1529 35.0289 27.0216 34.8304 26.8496C34.6319 26.6775 34.4692 26.468 34.3516 26.2331C34.2341 25.9982 34.164 25.7424 34.1452 25.4803C34.1265 25.2183 34.1596 24.9551 34.2426 24.7059C34.3256 24.4566 34.4569 24.2262 34.629 24.0277C34.801 23.8292 35.0105 23.6665 35.2454 23.5489C35.4804 23.4314 35.7361 23.3612 35.9982 23.3425C36.2602 23.3238 36.5234 23.3569 36.7726 23.4399C38.9182 24.1548 40.7844 25.5268 42.1068 27.3615C43.4292 29.1961 44.1407 31.4003 44.1406 33.6619V37.3379C44.1406 38.9292 43.5085 40.4553 42.3833 41.5805C41.258 42.7058 39.7319 43.3379 38.1406 43.3379H36.1406ZM30.1406 7.33789C29.6102 7.33789 29.1015 7.12718 28.7264 6.7521C28.3513 6.37703 28.1406 5.86832 28.1406 5.33789C28.1406 4.80746 28.3513 4.29875 28.7264 3.92368C29.1015 3.5486 29.6102 3.33789 30.1406 3.33789C32.2624 3.33789 34.2972 4.18075 35.7975 5.68104C37.2978 7.18133 38.1406 9.21616 38.1406 11.3379V15.3379C38.1406 17.4596 37.2978 19.4945 35.7975 20.9947C34.2972 22.495 32.2624 23.3379 30.1406 23.3379C29.6102 23.3379 29.1015 23.1272 28.7264 22.7521C28.3513 22.377 28.1406 21.8683 28.1406 21.3379C28.1406 20.8075 28.3513 20.2988 28.7264 19.9237C29.1015 19.5486 29.6102 19.3379 30.1406 19.3379C31.2015 19.3379 32.2189 18.9165 32.9691 18.1663C33.7192 17.4162 34.1406 16.3988 34.1406 15.3379V11.3379C34.1406 10.277 33.7192 9.25961 32.9691 8.50946C32.2189 7.75932 31.2015 7.33789 30.1406 7.33789Z" fill="#F37003"/>
</svg>
