<svg width="184" height="58" viewBox="0 0 184 58" fill="none" xmlns="http://www.w3.org/2000/svg">
<path d="M60.0001 29C60.0001 45.0163 46.5686 58 30.0001 58C13.4315 58 8.49538e-05 45.0163 8.49538e-05 29C8.49538e-05 12.9837 13.4315 0 30.0001 0C46.5686 0 60.0001 12.9837 60.0001 29Z" fill="#F37003"/>
<path d="M33.7434 29.4078C33.4482 29.034 33.1162 28.843 31.9199 27.8983C30.5335 26.8037 30.6973 26.9107 30.7317 26.7694C30.7665 26.6118 30.7883 26.4517 30.7969 26.2906C30.9532 25.2986 30.4987 25.2094 30.3897 24.9167C30.3723 24.8699 30.3319 24.8887 30.3016 24.7731C30.284 24.7696 30.2658 24.7719 30.2497 24.7797C30.2336 24.7875 30.2205 24.8004 30.2125 24.8164C30.1587 24.8865 30.1089 24.9595 30.0631 25.035C29.4638 26.0868 29.5844 25.7999 29.5992 26.5703C29.6067 26.963 29.7042 26.9624 29.5803 27.0705C28.8391 27.716 27.2641 28.652 26.5945 29.2616C26.4481 29.395 26.5228 29.3539 26.1435 29.6979C26.1092 29.7237 26.0839 29.7598 26.0713 29.8009C26.0509 29.8697 26.0401 29.941 26.0391 30.0128C26.0709 30.375 26.1286 30.7346 26.2118 31.0886C26.7275 33.4202 26.624 33.1967 27.1969 34.6272C27.1984 34.6317 27.637 35.6514 27.6843 35.8543C27.8531 36.5729 27.9765 37.0654 28.05 37.416H31.6994C31.7835 37.0346 31.9159 36.6474 32.0797 36.1313C32.225 35.6719 32.0727 35.9828 32.9837 34.0612C33.3312 33.3292 33.4352 32.8894 33.9703 30.949C34.3243 29.6669 34.1148 29.8784 33.7434 29.4078ZM30.208 26.3153C30.2374 26.3529 30.2085 26.3768 30.1837 26.4076C30.1702 26.3692 30.1697 26.3396 30.208 26.3153ZM33.0029 30.3816C32.8516 30.762 32.8033 31.3491 32.2812 32.4102C32.1582 32.6601 31.9765 33.0553 31.8859 33.2069C31.6873 33.5397 31.6858 33.7462 31.5638 33.9072C31.4777 34.0218 31.4508 33.9416 31.2781 34C31.2469 34.0135 31.2129 34.0194 31.179 34.0172C31.145 34.0149 31.1121 34.0046 31.083 33.9871C31.0382 33.9585 30.9869 33.975 30.9431 33.9741C30.8097 33.8711 30.8042 33.2555 30.7744 33.0254C30.8984 32.9375 30.9865 32.8835 31.0472 32.7345C31.2822 32.1589 31.2169 32.0552 31.299 31.9824C31.4116 31.8839 31.411 31.8094 31.4509 31.4294C31.4628 31.3174 31.4589 31.2183 31.3742 31.163C31.6117 30.8691 31.5658 30.4046 31.3344 30.0961C31.0616 29.7325 30.8037 29.6643 30.623 29.3579C30.638 29.3302 30.6544 29.303 30.6674 29.2744C30.7092 29.1821 30.6255 29.1714 30.6454 29.1197C30.6922 29.0001 30.5608 28.964 30.5319 28.8306C30.4528 28.4689 30.1063 28.7267 29.8918 28.6807C29.6971 28.6393 29.5593 28.7922 29.401 28.9783C29.3218 29.0715 29.3746 29.1181 29.4264 29.1821C29.4109 29.2169 29.3681 29.2432 29.3796 29.2834C29.4011 29.3561 29.4686 29.3963 29.3407 29.4587C28.7016 29.77 28.7583 30.3516 28.5413 30.5997C28.3735 30.791 28.4193 31.0658 28.5612 31.2906C28.4099 31.3576 28.3959 31.3888 28.494 31.6887C28.5801 31.9528 28.4886 32.0465 28.721 32.1704C28.7767 32.4296 28.8101 32.7592 29.2098 32.9653C29.3771 33.0514 29.2531 33.77 29.2431 33.8507C29.2337 33.9257 29.0993 34.0131 29.0226 34.0216C28.8025 34.0457 28.8343 34.0754 28.7901 34.0046C28.2634 33.162 28.2864 33.2218 28.0548 32.6959C27.0294 30.3683 27.1932 30.4094 27.2185 30.3866C27.8189 29.8567 27.8861 29.7992 28.2298 29.5061C29.7635 28.1983 30.0961 27.3124 30.2743 27.5247C30.9513 28.3281 31.6521 29.2701 32.7423 30.1221C33.037 30.3525 33.0286 30.3151 33.0029 30.3816Z" fill="white"/>
<path d="M33.071 41.7327C32.3751 41.0757 35.3846 42.3135 37.0994 42.5653C40.0039 42.9918 42.2173 43.3167 44.7492 42.5592C45.6683 42.2841 47.0854 41.73 48.6367 40.5143C48.6858 40.4757 45.3342 38.1978 45.1139 38.081C42.3486 36.6125 39.2055 35.844 36.0711 36.1573C33.425 36.4216 31.0047 37.6266 28.8383 39.1123C27.4793 40.0443 26.4206 41.3148 25.0555 42.2331C22.5594 43.9122 19.8178 44.3089 16.8701 44.2566C14.5144 44.214 12.177 43.833 9.92977 43.125C9.92977 43.125 10.5735 37.364 19.6439 33.0139C19.6901 33.0602 10.4809 30.0984 9 23.8972C9 23.8972 16.2193 19.2232 24.9658 24.8691C25.0121 24.9617 23.9014 16.4003 31.1206 9.73633C31.1669 9.73633 38.4788 17.3258 35.6559 25.193C35.7022 25.2393 43.1991 20.3339 51.2976 22.509C51.3902 22.4627 48.1045 35.3278 36.35 32.69C36.3963 32.69 45.4204 31.9032 48.3822 24.3138C48.3822 24.3138 41.3017 22.2313 33.4346 28.8952C33.4346 28.9415 36.7733 18.663 31.1275 12.0915C31.1275 12.0915 25.1972 20.2413 27.4648 28.4324C27.4648 28.4787 19.4588 21.4908 11.2676 24.5914C11.3139 24.684 14.5996 30.9777 25.2434 31.9495C25.336 31.9958 16.6822 35.1427 12.332 41.6678C14.3773 42.1375 17.5271 42.5157 20.8935 41.4827C25.2994 40.1306 28.4502 36.2115 32.8792 34.8187C37.5796 33.3407 41.878 34.5596 43.0603 34.9113C47.8098 36.3232 51.9901 39.6765 51.9918 39.6779C52.2153 39.8572 47.7851 43.2722 47.4891 43.4484C42.7372 46.2769 37.056 45.4951 33.071 41.7327Z" fill="white"/>
<path d="M108.044 21.415H105.001V39.9713H104.456L101.778 38.4504V21.415H95.632V39.9713H95.0862L92.4373 38.4504V32.033H92.4088C91.9075 32.2415 91.3686 32.3445 90.8257 32.3357C90.2008 32.3404 89.581 32.2217 89.002 31.9865C88.3411 31.6968 87.7259 31.3126 87.1757 30.8458L87.0541 30.8768C87.4491 31.6699 87.647 32.5465 87.631 33.4324C87.631 34.9326 87.1697 36.1337 86.247 37.0355C85.3244 37.9374 84.1129 38.3883 82.6126 38.3883C81.5927 38.4029 80.5805 38.211 79.6367 37.8243C78.6929 37.4376 77.8371 36.864 77.1208 36.138C75.507 34.5295 74.1205 32.7081 73 30.7242L74.0347 29.9638C74.9709 31.4371 76.1307 32.7556 77.4726 33.8721C78.7479 34.9171 80.0249 35.4396 81.3037 35.4396C82.2466 35.4733 83.1649 35.1341 83.8594 34.4955C84.1776 34.2137 84.4317 33.867 84.6048 33.4789C84.7779 33.0908 84.866 32.6701 84.8631 32.2451C84.8776 31.6895 84.7801 31.1366 84.5766 30.6194C84.3731 30.1022 84.0676 29.6311 83.6783 29.2343C82.3061 29.6456 80.9017 29.9406 79.48 30.1164L78.2021 27.8039L78.5358 27.0435C80.6259 26.9012 82.0866 26.5969 82.9178 26.1304C83.3948 25.8773 83.7907 25.4947 84.0597 25.0266C84.3288 24.5584 84.4603 24.0238 84.4389 23.4843C84.4342 23.1634 84.3596 22.8474 84.2202 22.5584C84.0808 22.2693 83.88 22.0142 83.6318 21.8108C83.0951 21.3249 82.3922 21.0638 81.6684 21.0813C80.8477 21.0797 80.039 21.2777 79.3118 21.6582C78.4762 22.1131 77.7039 22.6758 77.0147 23.3317L75.4626 20.3519C76.2615 19.7767 77.1309 19.3064 78.0494 18.9526C78.8565 18.5938 79.7231 18.3877 80.6052 18.3447C81.4356 18.3447 82.3332 18.6844 83.2981 19.3638C84.2561 20.0384 85.0762 20.8901 85.7142 21.8728C86.3158 22.7193 86.655 23.7242 86.6894 24.7621C86.69 25.4436 86.5528 26.1182 86.2861 26.7454C86.0194 27.3726 85.6286 27.9394 85.1373 28.4118C85.8078 28.7544 86.5105 29.0299 87.2352 29.2343C87.9266 29.4446 88.6441 29.5569 89.3667 29.568C90.4645 29.5867 91.5397 29.2561 92.4373 28.6239V21.415H88.2104L87.0541 19.2552V18.7094H106.918V19.2552L108.044 21.415Z" fill="#F37003"/>
<path d="M122.48 10.567C119.955 8.93488 117.618 8.11838 115.467 8.11752C114.302 8.0974 113.144 8.3093 112.061 8.74089C111.149 9.09527 110.35 9.68961 109.748 10.461C109.204 11.1774 108.914 12.0549 108.925 12.9545C108.925 14.5754 109.798 16.4921 111.543 18.7045H106.918V19.2503L108.043 21.4101H111.238V38.4455L113.915 39.9664H114.464V21.4101H117.565V20.8928L116.381 18.7045H113.52C113.174 18.0991 112.899 17.456 112.699 16.7878C112.467 16.0805 112.344 15.3416 112.335 14.597C112.335 13.4408 112.75 12.5484 113.582 11.9198C114.413 11.2913 115.478 10.9671 116.776 10.9473V10.9783C118.541 10.9783 120.502 11.6068 122.661 12.8639C125.116 14.3291 127.451 15.9872 129.643 17.8225L130.494 16.6947C127.971 14.466 125.293 12.4183 122.48 10.567Z" fill="#F37003"/>
<path d="M135.149 20.8978V21.4152H130.95V27.3162H126.052C124.368 27.3162 123.101 27.6559 122.249 28.3353C121.832 28.6654 121.498 29.0897 121.276 29.5735C121.054 30.0573 120.95 30.5869 120.972 31.1188C120.961 31.5542 121.04 31.987 121.205 32.3902C121.37 32.7933 121.616 33.158 121.929 33.4612C122.568 34.0904 123.343 34.564 124.195 34.8453C124.927 35.1129 125.697 35.2614 126.477 35.2851C127.056 35.2801 127.635 35.2395 128.21 35.1635L126.871 32.0303C127.236 31.5995 127.694 31.2564 128.21 31.0265C128.678 30.812 129.185 30.698 129.7 30.6918C130.735 30.6918 131.531 30.996 132.088 31.6046C132.652 32.2282 132.952 33.0459 132.925 33.886C132.903 34.5403 132.691 35.1742 132.317 35.7111C131.895 36.312 131.344 36.8109 130.704 37.1712L133.959 42.3423L131.799 43.4983L129.305 37.7491C128.384 38.007 127.431 38.1299 126.476 38.114C125.356 38.0839 124.265 37.7586 123.312 37.1712C122.182 36.5087 121.231 35.5791 120.544 34.4641C119.775 33.223 119.384 31.785 119.418 30.3255C119.418 28.2167 119.92 26.6958 120.924 25.7627C121.928 24.8296 123.404 24.3633 125.351 24.3636H127.725V21.4152H117.473L116.348 19.2556V18.708H134.023L135.149 20.8978Z" fill="#F37003"/>
<path d="M155.042 21.4157H151.938V39.9712H151.393L148.685 38.4192L148.777 34.1607L148.685 34.1304C148.064 34.543 147.395 34.8799 146.694 35.134C145.94 35.4169 145.141 35.5612 144.336 35.56C142.633 35.5525 140.998 34.8877 139.773 33.7044C138.414 32.4676 137.369 30.7642 136.639 28.594C137.815 28.259 138.922 27.7183 139.91 26.9971C140.731 26.359 141.142 25.5935 141.142 24.7004C141.141 24.1517 141 23.6123 140.731 23.134C140.366 22.5143 139.932 21.9378 139.438 21.4152H135.055L133.93 19.2556V18.708H153.886L155.042 20.8978V21.4157ZM146.174 32.0927C147.115 31.662 147.982 31.0873 148.745 30.3891V21.4157H141.87V21.4765C143.492 23.2407 144.303 24.6095 144.303 25.5829C144.303 26.5365 143.827 27.4339 142.874 28.2751C141.951 29.098 140.89 29.7519 139.74 30.2068C139.757 30.5835 139.859 30.9515 140.039 31.2833C140.218 31.6152 140.47 31.9023 140.775 32.1232C141.418 32.594 142.199 32.8395 142.996 32.8216C144.097 32.8205 145.183 32.5714 146.174 32.0927Z" fill="#F37003"/>
<path d="M164.536 20.899V21.4164H161.432V39.9719H160.884L158.207 38.4507V21.4164H155.013L153.888 19.2565V18.709H158.755C158.065 17.4315 157.578 16.5798 157.295 16.1537C156.504 14.8562 155.845 13.8321 155.317 13.0813C154.97 12.5308 154.539 12.0382 154.04 11.6214L150.237 12.8079C149.881 12.5088 149.595 12.1348 149.4 11.7124C149.187 11.2661 149.078 10.7774 149.081 10.2828C149.065 9.9708 149.118 9.65909 149.236 9.36991C149.355 9.08074 149.535 8.8212 149.765 8.60981C150.241 8.19734 150.855 7.98001 151.484 8.00145C152.864 8.00145 154.081 8.56422 155.135 9.68974C156.189 10.8153 157.264 12.4427 158.36 14.572C158.825 15.4236 159.505 16.7925 160.398 18.6787H163.288L164.536 20.899Z" fill="#F37003"/>
<path d="M184.005 20.8888V21.4097H180.901V40.1427H180.323L177.646 38.6073V21.4097H171.319L171.38 22.0853C171.725 25.9135 171.898 28.616 171.898 30.1928C171.909 31.0271 171.71 31.8508 171.319 32.5882C170.934 33.3052 170.204 33.6635 169.129 33.663C168.424 33.6852 167.734 33.4567 167.182 33.0181C166.666 32.6036 166.263 32.065 166.011 31.4527C165.772 30.91 165.643 30.3257 165.63 29.7332C165.617 29.2557 165.679 28.7791 165.813 28.3206L168.794 28.7197L169.007 21.4107H164.383L163.258 19.2305V18.6777H182.819L184.005 20.8888Z" fill="#F37003"/>
</svg>
